<?xml version="1.0" encoding="UTF-8"?>
<svg id="_레이어_1" data-name="레이어 1" xmlns="http://www.w3.org/2000/svg" viewBox="0 0 165.5 183.4">
  <defs>
    <style>
      .cls-1 {
        fill: #fff;
      }

      .cls-2 {
        fill: #1e0e07;
      }

      .cls-3 {
        fill: #e5003a;
      }

      .cls-4 {
        fill: #7cbe35;
      }

      .cls-5 {
        fill: #00519d;
      }
    </style>
  </defs>
  <path class="cls-4" d="M69,31.36S72.4,7.34,100.47,.83c0,0,7.31-1.78,15.67-.12,0,0-18.67,9.67-9.54,37.73,0,0-16.17-14.2-37.6-7.07"/>
  <path class="cls-4" d="M120.74,55.56c-.24,1.84,3.25-36.24,44.76-34.76,0,0-17.25,11-6.22,38.55,.94,.65-16.93-13.47-38.54-3.79"/>
  <path class="cls-4" d="M154.35,60.12l-24.62-.83c-.33,.09-9.94,1.52-18.94,10.49-9.67,9.64-18.6,27.58-13.4,49.88,.44-4.66,4.67-11.54,16.14-11.38,.75,0,27.79-.99,49.66,16.43,0,0-20.77-21.75-21.42-37.87,0,0-.86-18.02,12.58-26.72"/>
  <path class="cls-4" d="M103.09,39.93l-28.2-1.25s-18.36,3.25-29.74,22.33c0,0-13.03,21.91-4.1,40.43,0,0-.58-8.36,12.85-11.32,0,0,13.14-5.5,41.16,12.46,0,0-11.46-15.24-9.04-31.21,0,0,1.53-21.04,17.07-31.45"/>
  <path class="cls-4" d="M38.73,61s-22.25,6.52-30.93,21.88c0,0-12.27,16.69-6.03,32.07,0,0,2.26-9.32,10.46-10.05,0,0,11.5-3.93,28.04,9.68,0,0-8.18-13.15-8.01-27.62,0,0,.18-19.25,6.47-25.95"/>
  <path class="cls-2" d="M19.07,132.62l11.46,.02c5.42,.01,7.33,2.91,6.4,7.27-.66,3.1-2.61,5.87-5.97,6.51l-.02,.08c3.75,.37,4.61,3.64,3.96,6.65-1.08,5.05-4.29,8.6-10.61,8.58l-11.46-.02,6.24-29.11Zm2.52,23.66h2.12c1.39,0,2.95-1.21,3.46-3.58,.48-2.24-.55-3.51-1.94-3.51h-2.12s-1.52,7.09-1.52,7.09Zm2.62-12.23h1.83c1.55,0,2.7-1.38,3.04-2.93,.35-1.63-.21-3.02-1.76-3.02h-1.83s-1.28,5.95-1.28,5.95Z"/>
  <path class="cls-2" d="M43.99,132.67l11.87,.02c5.79,.01,7.29,3.28,6.33,7.76-.83,3.87-2.88,6.4-6.46,6.92l-.02,.08c3.6,.33,4.2,2.66,3.37,6.53l-.53,2.49c-.32,1.51-.74,3.46-.5,4.03,.13,.33,.23,.65,.66,.9l-.09,.41-8.07-.02c-.4-1.55,.19-4.32,.46-5.54l.42-1.96c.71-3.3,.24-4.16-1.6-4.16h-2s-2.5,11.65-2.5,11.65h-7.59s6.24-29.12,6.24-29.12Zm4.95,12.33h1.51c2.16,0,3.48-1.38,3.93-3.46,.51-2.37-.21-3.39-2.5-3.39h-1.47s-1.47,6.85-1.47,6.85Z"/>
  <polygon class="cls-2" points="69.01 150.37 65.38 132.71 73.7 132.72 74.37 142.88 74.46 142.88 79.49 132.73 87.81 132.75 76.6 150.39 74.14 161.84 66.56 161.83 69.01 150.37"/>
  <path class="cls-2" d="M99.2,141.62c.71-3.3,.31-4.28-1.16-4.29-2.32,0-3.02,2.11-4.71,9.98-1.69,7.87-1.9,9.99,.43,9.99,1.88,0,2.63-1.63,3.81-7.13h7.34s-.46,2.17-.46,2.17c-1.75,8.15-6.94,10.1-11.79,10.09-8.52-.02-9.48-4.3-7.16-15.14,2.39-11.13,5.77-15.12,13.64-15.1,6.85,.01,8.65,3.6,7.45,9.23l-.39,1.83h-7.34s.35-1.64,.35-1.64Z"/>
  <polygon class="cls-2" points="113.39 132.79 130.64 132.83 129.31 139.02 119.64 139 118.58 143.98 127.63 143.99 126.36 149.95 117.3 149.93 116.06 155.72 126.09 155.74 124.76 161.93 107.15 161.9 113.39 132.79"/>
  <polygon class="cls-2" points="135.83 132.84 144.32 132.85 145.36 150.8 145.44 150.8 149.29 132.86 156.39 132.87 150.15 161.98 141.83 161.97 140.62 143.98 140.54 143.98 136.69 161.96 129.59 161.94 135.83 132.84"/>
  <polygon class="cls-3" points="11.87 166.96 10.58 172.36 9.94 175.06 9.3 177.75 8.01 183.15 145.74 183.4 147.03 178.01 147.67 175.31 148.31 172.61 149.6 167.22 149.6 167.22 11.87 166.96"/>
  <path class="cls-5" d="M149.6,167.22s-17.06,16.52-74.58,7.96c-50-7.44-67,7.97-67,7.97l137.73,.26,3.85-16.19Z"/>
  <polygon class="cls-1" points="27.21 169.01 29.38 169.02 28.45 174.03 33.44 169.02 36.28 169.03 31.04 174.04 34.24 181.21 31.42 181.2 29.15 175.88 27.87 177.12 27.12 181.2 24.96 181.19 27.21 169.01"/>
  <path class="cls-1" d="M57.83,180.17c-.97,.95-2.2,1.42-3.71,1.42s-2.57-.48-3.19-1.43c-.85-1.16-1.07-2.84-.66-5.03,.41-2.23,1.26-3.9,2.53-5.02,.97-.95,2.2-1.42,3.71-1.42s2.57,.48,3.19,1.43c.85,1.12,1.07,2.8,.66,5.03-.41,2.19-1.25,3.86-2.53,5.02m.33-5.02c.25-1.37,.19-2.42-.18-3.17-.37-.75-.99-1.12-1.86-1.12s-1.63,.37-2.29,1.11c-.66,.74-1.11,1.8-1.37,3.17-.25,1.37-.19,2.43,.19,3.17,.38,.74,1,1.12,1.87,1.12s1.63-.37,2.28-1.11c.65-.74,1.1-1.8,1.36-3.17"/>
  <path class="cls-1" d="M84.92,170.28c.17,.31,.29,.65,.35,1.03,.06,.37,.05,.8-.03,1.28-.11,.58-.34,1.15-.7,1.71-.36,.56-.85,.95-1.47,1.18,.44,.23,.73,.55,.85,.96,.13,.42,.11,1.05-.05,1.91l-.15,.82c-.1,.56-.15,.93-.15,1.13,0,.31,.09,.55,.27,.7l-.05,.31h-2.42c-.02-.27-.03-.49-.03-.66,0-.34,.04-.69,.1-1.05l.19-1.13c.14-.78,.11-1.3-.08-1.55-.19-.26-.6-.39-1.25-.39h-2.27s-.88,4.77-.88,4.77h-2.15s2.25-12.18,2.25-12.18h5.16c.73,.03,1.28,.13,1.64,.33,.36,.19,.65,.48,.85,.85m-5.9,.94l-.61,3.27h2.49c.5,0,.88-.06,1.15-.19,.48-.23,.79-.69,.92-1.37,.14-.74,.01-1.23-.36-1.49-.21-.14-.56-.21-1.03-.22h-2.55Z"/>
  <polygon class="cls-1" points="109.2 171.32 103.63 171.31 103.16 173.9 108.26 173.91 107.87 176.02 102.76 176.01 102.18 179.15 108 179.16 107.6 181.35 99.63 181.33 101.89 169.15 109.6 169.17 109.2 171.32"/>
  <path class="cls-1" d="M128.64,169.2h2.48s1.47,12.19,1.47,12.19h-2.38s-.22-2.51-.22-2.51h-3.88s-1.19,2.49-1.19,2.49h-2.3s6.01-12.18,6.01-12.18Zm-1.54,7.58h2.67s-.43-4.79-.43-4.79l-2.24,4.79Z"/>
</svg>